<?xml version="1.0" encoding="UTF-8"?>
<svg width="164px" height="31px" viewBox="0 0 164 31" version="1.1" xmlns="http://www.w3.org/2000/svg" xmlns:xlink="http://www.w3.org/1999/xlink">
    <!-- Generator: Sketch 46.2 (44496) - http://www.bohemiancoding.com/sketch -->
    <title>kawlant-logo</title>
    <desc>Created with Sketch.</desc>
    <defs></defs>
    <g id="HomePage" stroke="none" stroke-width="1" fill="none" fill-rule="evenodd">
        <g id="Página-Principal" transform="translate(-251.000000, -224.000000)">
            <g id="kawlant-logo" transform="translate(251.000000, 224.000000)">
                <polygon id="Fill-9" fill="#231F20" points="2.3100411 9.91816529 16.0130274 23.629438 16.0130274 0.000280991736 18.0669589 0.000280991736 18.0669589 30.3867273 16.0130274 30.3867273 16.0130274 25.941438 10.9981096 20.9229256 2.78406849 30.3867273 0.0393150685 30.3867273 9.57658904 19.5005455 0 9.91816529"></polygon>
                <polygon id="Path" fill="#939597" points="80.5211356 9.91816529 73.2545877 30.3867273 72.7614644 30.3867273 67.3511493 15.4104298 61.9211767 30.3867273 61.4471493 30.3867273 54.1609438 9.91816529 56.2541904 9.91816529 61.684163 24.8742314 67.1337932 9.91816529 67.5482863 9.91816529 72.9979164 24.8742314 78.427889 9.91816529"></polygon>
                <polygon id="Path" fill="#231F20" points="89.9201329 30.3864463 91.9735027 30.3864463 91.9735027 0 89.9201329 0"></polygon>
                <polygon id="Path" fill="#231F20" points="157.172377 5.61983471e-05 159.225747 5.61983471e-05 159.225747 9.9179405 163.471212 9.9179405 163.471212 11.973114 159.225747 11.973114 159.225747 30.3865025 157.172377 30.3865025"></polygon>
                <path d="M111.367121,28.6052397 C106.931819,28.6052397 103.336737,24.819719 103.336737,20.1524463 C103.336737,15.4840496 106.931819,11.6996529 111.367121,11.6996529 C114.451668,11.6996529 117.126778,13.532843 118.471353,16.218562 L118.471353,24.0852066 C117.126778,26.7709256 114.451668,28.6052397 111.367121,28.6052397 L111.367121,28.6052397 Z M118.471353,9.89849587 L118.471353,13.6755868 C116.705545,11.2135372 113.964162,9.62649587 110.877367,9.62649587 C105.549614,9.62649587 101.230011,14.3392893 101.230011,20.1524463 C101.230011,25.9656033 105.549614,30.6783967 110.877367,30.6783967 C113.964162,30.6783967 116.705545,29.0902314 118.471353,26.6293058 L118.471353,30.3670579 L120.525285,30.3670579 L120.525285,9.89849587 L118.471353,9.89849587 Z" id="Fill-13" fill="#939597"></path>
                <path d="M35.6044562,28.6052397 C31.1685932,28.6052397 27.5740726,24.819719 27.5740726,20.1524463 C27.5740726,15.4840496 31.1685932,11.6996529 35.6044562,11.6996529 C38.6890041,11.6996529 41.3641137,13.532843 42.708689,16.218562 L42.708689,24.0852066 C41.3641137,26.7709256 38.6890041,28.6052397 35.6044562,28.6052397 L35.6044562,28.6052397 Z M42.708689,9.89849587 L42.708689,13.6755868 C40.9428808,11.2135372 38.2014973,9.62649587 35.1147027,9.62649587 C29.7869493,9.62649587 25.4673466,14.3392893 25.4673466,20.1524463 C25.4673466,25.9656033 29.7869493,30.6783967 35.1147027,30.6783967 C38.2014973,30.6783967 40.9428808,29.0902314 42.708689,26.6293058 L42.708689,30.3670579 L44.7626205,30.3670579 L44.7626205,9.89849587 L42.708689,9.89849587 Z" id="Fill-14" fill="#939597"></path>
                <path d="M149.075719,17.2261983 C149.063363,12.4161818 147.628363,9.62649587 142.804404,9.62649587 C139.71761,9.62649587 136.672938,10.5835537 133.517623,13.6755868 L133.517623,9.91816529 L131.464253,9.91816529 L131.464253,30.3867273 L133.517623,30.3867273 L133.517623,16.218562 C136.298884,12.9719835 139.230103,11.6985289 142.314651,11.6996529 C145.963651,11.7007769 146.9235,13.4856364 147.023473,17.3447769 L147.023473,30.3867273 L149.076842,30.3867273 L149.076842,17.2261983 L149.075719,17.2261983 Z" id="Fill-15" fill="#939597"></path>
            </g>
        </g>
    </g>
</svg>