<?xml version="1.0" encoding="UTF-8"?>
<svg width="165px" height="240px" viewBox="0 0 165 240" version="1.1" xmlns="http://www.w3.org/2000/svg" xmlns:xlink="http://www.w3.org/1999/xlink">
    <!-- Generator: Sketch 46.2 (44496) - http://www.bohemiancoding.com/sketch -->
    <title>logo-kawlant-big</title>
    <desc>Created with Sketch.</desc>
    <defs>
        <polygon id="path-1" points="45.7275355 0.092173913 0 0.092173913 0 163.132174 91.4550711 163.132174 91.4550711 0.092173913"></polygon>
        <polygon id="path-3" points="60.5176579 0.791826087 60.5176579 131.828348 0.191834211 131.828348 0.191834211 0.791826087 60.5176579 0.791826087"></polygon>
    </defs>
    <g id="HomePage" stroke="none" stroke-width="1" fill="none" fill-rule="evenodd" opacity="0.0599999987">
        <g id="Página-Principal" transform="translate(-638.000000, -239.000000)">
            <g id="content" transform="translate(503.000000, 239.000000)">
                <g id="logo-kawlant-big" transform="translate(135.000000, 0.000000)">
                    <g id="Group-3" transform="translate(0.000000, 0.777391)">
                        <mask id="mask-2" fill="white">
                            <use xlink:href="#path-1"></use>
                        </mask>
                        <g id="Clip-2"></g>
                        <path d="M61.6638868,18.4052174 C61.6638868,12.053913 66.8231763,6.88695652 73.1669921,6.88695652 C79.5090711,6.88695652 84.6683605,12.053913 84.6683605,18.4052174 C84.6683605,24.7556522 79.5090711,29.9226087 73.1669921,29.9226087 C66.8231763,29.9226087 61.6638868,24.7556522 61.6638868,18.4052174 L61.6638868,18.4052174 Z M77.8547289,163.132174 L77.8547289,36.0843478 C85.6705184,34.0043478 91.4550711,26.8773913 91.4550711,18.4052174 C91.4550711,8.30695652 83.2502289,0.092173913 73.1669921,0.092173913 C63.0820184,0.092173913 54.8771763,8.30695652 54.8771763,18.4052174 C54.8771763,27.0678261 60.9213868,34.3269565 69.0055184,36.22 L69.0055184,133.997391 L9.95375526,74.8669565 L-8.68421053e-05,74.8669565 L41.2672816,116.188696 L0.169255263,163.132174 L11.9980184,163.132174 L47.3913868,122.323478 L69.0055184,143.964348 L69.0055184,163.132174 L77.8547289,163.132174 Z" id="Fill-1" fill="#939597" mask="url(#mask-2)"></path>
                    </g>
                    <g id="Group-6" transform="translate(104.210526, 32.081739)">
                        <mask id="mask-4" fill="white">
                            <use xlink:href="#path-3"></use>
                        </mask>
                        <g id="Clip-5"></g>
                        <path d="M42.2303605,58.3831304 C35.8874132,58.3831304 30.7272553,53.2170435 30.7272553,46.8657391 C30.7272553,40.5153043 35.8874132,35.3474783 42.2303605,35.3474783 C48.5724395,35.3474783 53.7325974,40.5153043 53.7325974,46.8657391 C53.7325974,53.2170435 48.5724395,58.3831304 42.2303605,58.3831304 M42.2303605,28.5526957 C33.2743342,28.5526957 25.8145974,35.037913 24.2557816,43.5622609 L9.04017632,43.5622609 L9.04017632,0.791826087 L0.191834211,0.791826087 L0.191834211,131.828348 L9.04017632,131.828348 L9.04017632,52.4231304 L24.8080974,52.4231304 C27.1649921,59.8118261 34.0802289,65.177913 42.2303605,65.177913 C52.3135974,65.177913 60.5184395,56.9631304 60.5184395,46.8657391 C60.5184395,36.7674783 52.3135974,28.5526957 42.2303605,28.5526957" id="Fill-4" fill="#939597" mask="url(#mask-4)"></path>
                    </g>
                    <path d="M90.9671053,233.112609 C84.6232895,233.112609 79.464,227.947391 79.464,221.596087 C79.464,215.245652 84.6232895,210.078696 90.9671053,210.078696 C97.3091842,210.078696 102.468474,215.245652 102.468474,221.596087 C102.468474,227.947391 97.3091842,233.112609 90.9671053,233.112609 M95.5523684,203.88913 L95.5523684,75.643913 L86.7048947,75.643913 L86.7048947,203.806522 C78.6728684,205.736957 72.6772895,212.96913 72.6772895,221.596087 C72.6772895,231.693478 80.8821316,239.907391 90.9671053,239.907391 C101.050342,239.907391 109.255184,231.693478 109.255184,221.596087 C109.255184,213.086522 103.420263,205.935217 95.5523684,203.88913" id="Fill-7" fill="#939597"></path>
                </g>
            </g>
        </g>
    </g>
</svg>